<svg width="445" height="431" viewBox="0 0 445 431" fill="none" xmlns="http://www.w3.org/2000/svg">
<path d="M429.452 166.889C424.651 109.384 422.251 80.632 411.077 62.0297C379.086 8.76595 286.073 -3.90234 227.328 0.955633C148.683 7.45756 58.7141 51.3794 19.1111 136.182C-16.8589 213.206 -0.272964 300.392 53.9259 357.426C153.281 461.977 358.228 443.31 408.294 374.706C428.273 347.327 429.714 303.595 431.83 239.357C432.848 208.434 430.862 183.792 429.452 166.889Z" fill="#F4F7FA"/>
<path d="M391.765 35.1814C386.681 31.0946 378.968 28.8688 372.448 28.4193C326.231 25.2376 319.487 119.089 326.571 140.063C333.655 161.038 329.064 167.924 292.665 178.898C256.266 189.872 273.728 211 278.164 223.356C282.601 235.711 291.387 246.149 264.852 258.427C238.317 270.704 247.539 278.311 247.539 278.311C247.539 278.311 296.473 326.939 293.77 311.37C291.066 295.802 295.964 272.294 339.837 270.507C358.735 269.737 387.673 260.98 394.08 241.322C395.573 236.744 396.611 229.753 395.476 225.015C393.901 218.442 389.462 213.264 386.996 207.078C381.251 192.662 395.662 182.106 403.955 172.47C408.285 167.44 412.612 162.281 415.927 156.546C422.811 144.638 420.233 131.868 412.737 120.892C409.142 115.629 404.148 110.044 402.579 103.766C400.895 97.0221 402.364 87.8079 402.763 80.8704C403.077 75.429 403.611 70.0092 403.295 64.554C402.712 54.4101 400.266 42.0143 391.765 35.1814Z" fill="url(#paint0_linear_24_42)"/>
<g opacity="0.8">
<g opacity="0.8">
<path opacity="0.8" d="M243.692 305.604C243.375 305.715 243.015 305.584 242.855 305.287C242.681 304.962 242.809 304.56 243.143 304.391C243.349 304.286 263.95 293.759 286.931 276.421C308.107 260.445 335.694 235.254 346.862 205.969C356.192 181.512 364.698 141.078 370.204 95.0379C375.141 53.7528 375.921 23.2196 373.823 17.552C373.695 17.2072 373.88 16.8269 374.235 16.7023C374.59 16.5776 374.981 16.7577 375.11 17.1025C377.564 23.7337 376.007 58.0336 371.564 95.1918C366.047 141.333 357.511 181.878 348.146 206.431C336.861 236.016 309.075 261.4 287.752 277.484C264.676 294.891 243.985 305.462 243.779 305.567C243.749 305.581 243.72 305.593 243.692 305.604Z" fill="white"/>
</g>
<g opacity="0.8">
<path opacity="0.8" d="M370.129 103.041C369.776 103.164 369.416 103.069 369.286 102.725C369.115 102.271 351.886 57.2397 329.669 47.0727C329.326 46.9172 329.189 46.5416 329.349 46.2092C329.51 45.8767 329.921 45.7458 330.261 45.9013C352.987 56.3007 369.858 100.387 370.566 102.264C370.696 102.608 370.487 102.916 370.132 103.039C370.131 103.041 370.129 103.041 370.129 103.041Z" fill="white"/>
</g>
<g opacity="0.8">
<path opacity="0.8" d="M361.726 155.264C361.463 155.356 361.156 155.284 360.967 155.06C360.728 154.777 360.769 154.359 361.061 154.126C361.187 154.025 373.872 143.916 389.523 135.433C410.671 123.972 426.878 120.771 437.693 125.923C438.033 126.085 438.172 126.482 438.006 126.812C437.839 127.141 437.43 127.276 437.091 127.115C412.206 115.262 362.428 154.75 361.929 155.15C361.867 155.201 361.797 155.239 361.726 155.264Z" fill="white"/>
</g>
<g opacity="0.8">
<path opacity="0.8" d="M306.501 262.009C306.431 262.033 306.358 262.046 306.28 262.047C305.903 262.053 305.593 261.761 305.586 261.393C305.583 261.201 305.232 241.88 301.069 221.521C297.252 202.856 289.371 179.476 273.502 174.088C273.145 173.966 272.957 173.588 273.082 173.243C273.205 172.897 273.597 172.713 273.952 172.835C287.185 177.327 296.76 193.626 302.413 221.281C306.597 241.755 306.949 261.179 306.952 261.373C306.959 261.666 306.768 261.915 306.501 262.009Z" fill="white"/>
</g>
<g opacity="0.8">
<path opacity="0.8" d="M334.74 230.793C334.463 230.89 334.143 230.804 333.959 230.562C333.734 230.267 333.799 229.851 334.101 229.634C336.302 228.053 388.215 190.977 408.459 194.517C408.832 194.582 409.077 194.928 409.011 195.288C408.944 195.65 408.589 195.89 408.217 195.824C388.546 192.384 335.448 230.318 334.914 230.701C334.86 230.743 334.8 230.772 334.74 230.793Z" fill="white"/>
</g>
</g>
<path d="M432.328 173.414C428.968 167.897 422.484 163.267 416.506 160.701C374.122 142.515 335.088 228.613 334.448 250.679C333.808 272.744 327.09 277.716 289.017 276.077C250.943 274.437 260.016 300.06 259.887 313.146C259.759 326.231 264.39 338.941 235.145 341.772C205.899 344.603 211.927 354.791 211.927 354.791C211.927 354.791 241.037 416.636 243.916 401.097C246.795 385.558 259.591 365.047 301.498 377.789C319.548 383.277 349.83 384.55 362.706 368.158C365.706 364.341 369.117 358.104 369.699 353.272C370.505 346.57 368.132 340.237 367.965 333.606C367.579 318.151 384.817 312.955 395.977 306.615C401.802 303.305 407.671 299.872 412.789 295.566C423.414 286.624 425.438 273.76 422.207 260.967C420.657 254.833 417.902 247.936 418.613 241.512C419.377 234.613 423.969 226.424 426.761 220.027C428.95 215.01 431.341 210.085 432.945 204.848C435.931 195.106 437.948 182.638 432.328 173.414Z" fill="url(#paint1_linear_24_42)"/>
<g opacity="0.8">
<g opacity="0.8">
<path opacity="0.8" d="M198.799 379.207C198.463 379.207 198.17 378.965 198.122 378.633C198.072 378.27 198.333 377.934 198.707 377.885C198.937 377.854 221.989 374.72 249.653 365.958C275.144 357.886 309.878 343.249 330.588 319.364C347.885 299.415 369.974 264.164 391.189 222.65C410.214 185.424 421.582 156.947 421.582 150.924C421.582 150.557 421.888 150.26 422.265 150.26C422.642 150.26 422.948 150.557 422.948 150.924C422.948 157.971 409.536 189.735 392.413 223.241C371.15 264.846 348.996 300.194 331.632 320.22C310.71 344.35 275.72 359.102 250.052 367.228C222.276 376.022 199.122 379.169 198.891 379.199C198.862 379.205 198.831 379.207 198.799 379.207Z" fill="white"/>
</g>
<g opacity="0.8">
<path opacity="0.8" d="M388.333 230.294C387.958 230.294 387.652 230.017 387.65 229.652C387.647 229.169 387.119 181.095 369.754 164.225C369.486 163.966 369.486 163.549 369.754 163.29C370.02 163.032 370.453 163.033 370.721 163.292C388.484 180.549 389.003 227.645 389.018 229.643C389.021 230.009 388.717 230.294 388.338 230.294C388.335 230.294 388.333 230.294 388.333 230.294Z" fill="white"/>
</g>
<g opacity="0.8">
<path opacity="0.8" d="M362.237 276.538C361.957 276.538 361.694 276.369 361.594 276.098C361.467 275.753 361.651 275.373 362.007 275.248C362.161 275.194 377.619 269.852 395.303 267.015C419.194 263.18 435.56 265.499 443.945 273.901C444.208 274.165 444.2 274.585 443.929 274.84C443.658 275.096 443.226 275.088 442.963 274.825C423.674 255.492 363.078 276.286 362.468 276.498C362.391 276.526 362.313 276.538 362.237 276.538Z" fill="white"/>
</g>
<g opacity="0.8">
<path opacity="0.8" d="M273.089 358.832C273.016 358.832 272.942 358.819 272.867 358.796C272.511 358.678 272.319 358.301 272.443 357.953C272.506 357.77 278.906 339.474 282.079 318.947C284.988 300.128 285.716 275.537 272.658 265.249C272.365 265.019 272.321 264.6 272.558 264.315C272.796 264.03 273.227 263.986 273.52 264.218C284.409 272.795 287.742 291.282 283.428 319.161C280.235 339.803 273.801 358.198 273.736 358.382C273.639 358.658 273.373 358.832 273.089 358.832Z" fill="white"/>
</g>
<g opacity="0.8">
<path opacity="0.8" d="M310.534 338.741C310.239 338.741 309.968 338.555 309.879 338.268C309.77 337.917 309.976 337.546 310.337 337.442C312.958 336.678 374.723 318.853 392.54 328.84C392.866 329.023 392.978 329.43 392.79 329.747C392.601 330.064 392.183 330.173 391.857 329.99C374.544 320.286 311.366 338.528 310.73 338.713C310.665 338.732 310.599 338.741 310.534 338.741Z" fill="white"/>
</g>
</g>
<path d="M290.254 18.311L289.766 21.7067C288.145 21.779 286.551 21.9822 285 22.3208L283.679 19.153C283.319 18.2895 282.3 17.8785 281.405 18.2371L275.801 20.4799C274.904 20.8385 274.467 21.8329 274.825 22.698L276.153 25.9058C274.795 26.7463 273.511 27.6976 272.317 28.7504L269.503 26.6293C268.742 26.0567 267.639 26.1983 267.039 26.9464L263.274 31.6258C262.671 32.3754 262.799 33.4499 263.559 34.024L266.384 36.1575C265.632 37.5305 265 38.9805 264.489 40.4936L260.904 40.0364C259.941 39.9133 259.044 40.5767 258.901 41.5188L258 47.4204C257.855 48.3655 258.521 49.2337 259.486 49.3568L263.082 49.8155C263.125 51.4087 263.304 52.9757 263.623 54.5011L260.248 55.868C259.338 56.2359 258.892 57.2533 259.25 58.1384L261.498 63.6891C261.858 64.5788 262.889 64.999 263.802 64.628L267.178 63.255C268.028 64.5972 268.996 65.8625 270.07 67.0386L267.82 69.877C267.212 70.6451 267.341 71.7441 268.111 72.3321L272.935 76.0079C273.706 76.596 274.826 76.4482 275.433 75.677L277.656 72.857C279.076 73.5913 280.578 74.2024 282.145 74.6903L281.639 78.2091C281.502 79.1727 282.178 80.0547 283.151 80.1779L289.24 80.9537C290.214 81.0783 291.113 80.3964 291.249 79.4328L291.74 75.9402C293.396 75.8709 295.023 75.6631 296.606 75.3168L297.942 78.5431C298.312 79.439 299.35 79.8623 300.26 79.4883L305.938 77.1501C306.846 76.7761 307.279 75.7493 306.906 74.8566L305.571 71.6533C306.957 70.7836 308.263 69.7969 309.473 68.7056L312.249 70.8021C313.026 71.3886 314.138 71.2408 314.734 70.4727L318.452 65.6824C319.046 64.9174 318.899 63.8261 318.124 63.2427L315.374 61.1708C316.123 59.7593 316.746 58.2677 317.24 56.7146L320.678 57.1533C321.643 57.2764 322.527 56.6068 322.653 55.6586L323.434 49.7416C323.559 48.798 322.879 47.933 321.916 47.8098L318.487 47.3727C318.416 45.7595 318.207 44.1771 317.855 42.6394L321.035 41.3464C321.929 40.9831 322.352 39.9795 321.981 39.1052L319.658 33.65C319.287 32.7787 318.264 32.3662 317.37 32.7279L314.171 34.024C313.3 32.6956 312.314 31.4426 311.219 30.2836L313.333 27.6037C313.921 26.8571 313.777 25.7904 313.013 25.2193L308.236 21.6528C307.472 21.0833 306.377 21.2233 305.788 21.9668L303.662 24.6498C302.251 23.9386 300.762 23.3475 299.208 22.8796L299.681 19.5101C299.811 18.5835 299.144 17.7322 298.189 17.6106L292.22 16.8502C291.27 16.7317 290.387 17.3828 290.254 18.311ZM269.211 45.8165C270.937 34.1549 281.953 25.9797 293.829 27.4928C305.704 29.0059 314.044 39.6486 312.449 51.3256C310.844 63.0749 299.803 71.4101 287.798 69.8816C275.793 68.3516 267.476 57.5489 269.211 45.8165Z" fill="#D8DEE8"/>
<path d="M198.734 16.4697L197.979 21.7202C195.474 21.8311 193.009 22.1451 190.61 22.6684L188.568 17.7704C188.01 16.4343 186.437 15.8002 185.054 16.3543L176.388 19.8223C175.002 20.378 174.325 21.9126 174.88 23.2534L176.933 28.2129C174.834 29.5121 172.849 30.9821 171.003 32.6122L166.645 29.332C165.471 28.4469 163.765 28.667 162.836 29.8215L157.015 37.0561C156.082 38.2152 156.28 39.8761 157.456 40.7642L161.824 44.0645C160.661 46.1871 159.682 48.4299 158.893 50.768L153.349 50.0615C151.861 49.8722 150.475 50.8973 150.251 52.3535L148.859 61.4799C148.635 62.9422 149.665 64.2829 151.158 64.4723L156.717 65.1803C156.784 67.6432 157.06 70.0676 157.554 72.4257L152.336 74.5392C150.929 75.1087 150.239 76.6803 150.793 78.0503L154.269 86.6318C154.826 88.0064 156.421 88.6575 157.831 88.0833L163.052 85.9606C164.364 88.0356 165.861 89.992 167.523 91.8099L164.045 96.1984C163.104 97.3867 163.305 99.0861 164.497 99.9943L171.955 105.677C173.148 106.587 174.88 106.358 175.819 105.166L179.256 100.807C181.45 101.943 183.775 102.888 186.197 103.642L185.415 109.084C185.201 110.574 186.247 111.938 187.753 112.128L197.168 113.328C198.673 113.52 200.064 112.466 200.274 110.976L201.034 105.576C203.595 105.47 206.111 105.148 208.557 104.612L210.622 109.601C211.195 110.986 212.8 111.641 214.206 111.062L222.987 107.447C224.389 106.87 225.059 105.282 224.482 103.899L222.416 98.946C224.56 97.6022 226.578 96.0753 228.451 94.3882L232.742 97.63C233.941 98.5366 235.66 98.3072 236.583 97.122L242.333 89.7165C243.25 88.5343 243.023 86.8457 241.826 85.9437L237.573 82.742C238.733 80.5578 239.694 78.2519 240.458 75.8522L245.776 76.5295C247.268 76.7203 248.635 75.6844 248.829 74.219L250.036 65.0695C250.229 63.6087 249.177 62.2726 247.69 62.0833L242.388 61.4076C242.279 58.9139 241.955 56.4665 241.41 54.0898L246.329 52.0903C247.712 51.5284 248.366 49.9768 247.789 48.6254L244.197 40.1901C243.624 38.8432 242.041 38.206 240.661 38.7647L235.716 40.7673C234.369 38.7124 232.843 36.776 231.153 34.9858L234.42 30.842C235.329 29.6891 235.108 28.039 233.924 27.1554L226.537 21.6417C225.357 20.7613 223.663 20.9783 222.752 22.1281L219.463 26.2765C217.281 25.1775 214.979 24.2631 212.577 23.5381L213.31 18.3277C213.512 16.8946 212.479 15.58 211.003 15.3922L201.774 14.2162C200.302 14.0284 198.94 15.0367 198.734 16.4697ZM166.197 58.9986C168.864 40.9674 185.898 28.3268 204.258 30.6665C222.619 33.0062 235.515 49.4612 233.049 67.517C230.568 85.682 213.499 98.572 194.937 96.2061C176.374 93.8418 163.513 77.1375 166.197 58.9986Z" fill="#D8DEE8"/>
<path d="M189.904 67.3118L149.538 393.261C148.933 398.148 152.4 402.529 157.258 402.997L325.386 420.93C335.685 421.552 341.324 416.44 341.961 411.243L384.339 64.7043C384.972 59.5369 379.919 54.856 369.576 54.856L199.919 58.327C195.005 58.4086 190.506 62.4508 189.904 67.3118Z" fill="url(#paint2_linear_24_42)"/>
<path d="M182.336 66.752L141.749 394.331C141.14 399.243 144.62 403.647 149.493 404.118L323.794 420.978C329.259 421.506 334.268 417.665 334.906 412.443L377.523 64.1136C378.158 58.9186 374.145 54.744 368.62 54.8348L192.386 57.7241C187.458 57.8026 182.941 61.8663 182.336 66.752Z" fill="url(#paint3_linear_24_42)"/>
<path d="M185.644 84.8202L148.025 388.551C147.456 393.14 150.715 397.247 155.277 397.678L319.201 413.158C324.281 413.639 328.936 410.054 329.532 405.191L368.916 83.4164C369.509 78.5799 365.782 74.6655 360.65 74.7194L195.043 76.4326C190.434 76.4788 186.21 80.2547 185.644 84.8202Z" fill="#D8DEE8"/>
<path d="M273.549 66.5259C273.333 68.2699 274.622 69.666 276.428 69.6429C278.236 69.6214 279.877 68.1868 280.093 66.4397C280.308 64.6926 279.015 63.2965 277.207 63.3226C275.4 63.3488 273.763 64.7834 273.549 66.5259Z" fill="url(#paint4_linear_24_42)"/>
<path d="M213.985 288.705C247.543 228.428 297.676 210.384 312.77 148.262C320.928 114.682 315.37 82.5422 306.007 55.8603L368.623 54.8336C374.148 54.7428 378.161 58.9189 377.526 64.1124L334.909 412.441C334.271 417.666 329.262 421.506 323.797 420.977L186.78 407.723C185.764 353.713 199.024 315.573 213.985 288.705Z" fill="white"/>
<path d="M16.854 101.32C16.854 69.2909 45.6132 43.3309 80.1254 43.334C113.617 43.3371 140.049 67.9317 140.049 98.2664C140.049 128.601 113.617 154.506 80.1254 156.17C45.6116 157.884 16.854 133.35 16.854 101.32Z" fill="url(#paint5_linear_24_42)"/>
<path d="M20.5747 98.7662C20.5747 66.7368 48.502 40.7768 82.0145 40.7799C114.537 40.783 140.205 65.3777 140.205 95.7123C140.205 126.047 114.537 151.952 82.0145 153.615C48.5004 155.33 20.5747 130.794 20.5747 98.7662Z" fill="url(#paint6_linear_24_42)"/>
<g opacity="0.5">
<path opacity="0.5" d="M30.1348 98.5213C30.1348 71.6116 53.5971 49.7999 81.7542 49.8046C109.078 49.8076 130.644 70.471 130.644 95.9569C130.644 121.443 109.079 143.207 81.7542 144.604C53.5971 146.045 30.1348 125.431 30.1348 98.5213Z" fill="white"/>
</g>
<path opacity="0.5" d="M79.8166 53.9391C107.14 53.9422 128.706 74.6055 128.706 100.091C128.706 106.152 127.475 111.996 125.249 117.411C128.697 110.891 130.645 103.593 130.645 95.9569C130.645 70.471 109.081 49.8076 81.7559 49.8046C60.0396 49.803 41.1278 62.7823 33.6064 81.0628C42.1228 64.9911 59.7766 53.9375 79.8166 53.9391Z" fill="white"/>
<path d="M58.4087 91.9351V115.421C58.4087 122.211 64.2885 127.568 71.5199 127.385L89.451 126.931C96.5953 126.749 102.369 121.157 102.369 114.438V91.1993L58.4087 91.9351ZM74.9217 116.216L78.2538 106.406C76.8262 105.69 75.8597 104.28 75.8597 102.638C75.8597 100.227 77.9417 98.2339 80.5053 98.1877C83.0657 98.14 85.1398 100.052 85.1398 102.458C85.1398 104.097 84.1764 105.542 82.7536 106.315L86.073 115.963L74.9217 116.216Z" fill="white"/>
<path d="M97.2716 89.1628C95.3687 89.1936 93.8255 87.7636 93.8255 85.9673C93.8255 79.0636 87.8601 73.5222 80.5035 73.6145C73.1216 73.7069 67.096 79.4346 67.096 86.3814C67.096 88.1885 65.5322 89.6785 63.6007 89.7108C61.6677 89.7416 60.0991 88.3008 60.0991 86.4906C60.0991 75.9173 69.2778 67.2142 80.5051 67.0926C91.6722 66.971 100.711 75.3909 100.711 85.8626C100.711 87.6543 99.173 89.1321 97.2716 89.1628Z" fill="white"/>
<path d="M138.802 223.122C138.802 223.122 137.582 218.679 138.447 217.543C139.311 216.407 144.595 211.866 144.088 213.347C143.579 214.828 142.817 215.815 142.817 215.815C142.817 215.815 145.663 217.098 143.833 219.022C142.004 220.948 141.393 221.391 141.291 223.12C141.191 224.849 140.022 225.441 138.802 223.122Z" fill="url(#paint7_linear_24_42)"/>
<path d="M88.045 414.881C88.045 414.881 87.3985 418.723 87.4809 420.09C87.5633 421.457 103.183 422.155 103.34 421.132C103.496 420.108 100.758 418.478 98.8302 417.904C96.902 417.328 91.2582 415.795 91.2582 415.795L88.045 414.881Z" fill="url(#paint8_linear_24_42)"/>
<path d="M91.8355 411.051L91.338 415.829C91.338 415.829 89.5238 416.994 87.9251 416.095L87.125 410.896L91.8355 411.051Z" fill="url(#paint9_linear_24_42)"/>
<path d="M60.1763 421.109C60.1763 421.109 59.5298 424.951 59.6122 426.318C59.6946 427.685 75.314 428.384 75.4709 427.36C75.6293 426.336 72.8898 424.706 70.9616 424.132C69.0333 423.558 63.3895 422.023 63.3895 422.023L60.1763 421.109Z" fill="url(#paint10_linear_24_42)"/>
<path d="M63.9684 417.279L63.4708 422.057C63.4708 422.057 61.6567 423.222 60.058 422.323L59.2578 417.124L63.9684 417.279Z" fill="url(#paint11_linear_24_42)"/>
<path d="M89.0016 286.329C90.8063 289.885 92.6126 293.441 94.4173 296.996C95.8686 317.289 96.5911 339.356 96.1269 362.955C95.7815 380.512 94.8165 397.144 93.4286 412.755C90.9806 412.646 88.5327 412.536 86.0847 412.427C82.5451 405.602 78.3669 395.263 77.9819 382.499C77.581 369.186 81.7354 367.417 81.4724 354.67C81.1302 338.148 73.9986 333.739 70.1991 313.865C68.7462 306.264 67.7686 296.338 68.93 284.294C75.6211 284.973 82.3106 285.652 89.0016 286.329Z" fill="url(#paint12_linear_24_42)"/>
<path opacity="0.3" d="M68.9317 284.294C72.5442 284.661 76.1567 285.027 79.7708 285.393C86.2749 296.388 88.0907 307.831 86.9483 312.894C85.3338 320.056 81.0621 322.35 81.2982 329.54C81.5311 336.654 85.8456 338.5 88.5819 346.885C90.4769 352.691 89.9762 358.029 88.8988 368.468C86.7281 389.496 81.501 395.928 85.8788 402.822C87.1226 404.782 89.3646 407.114 93.7567 408.895C93.6489 410.184 93.5428 411.477 93.4303 412.753C90.9823 412.646 88.5343 412.535 86.0864 412.427C82.5468 405.602 78.3686 395.263 77.9836 382.499C77.5827 369.186 81.7371 367.417 81.4741 354.67C81.1319 338.148 74.0003 333.741 70.2008 313.867C68.7479 306.266 67.7687 296.339 68.9317 284.294Z" fill="url(#paint13_linear_24_42)"/>
<path d="M79.2872 292.731C75.8981 310.685 72.9051 329.9 70.5696 350.278C67.7493 374.884 66.2441 398.081 65.6531 419.617C62.9659 419.691 60.2803 419.765 57.593 419.839C47.0058 399.491 46.3594 385.696 47.8852 376.714C48.473 373.254 50.0717 366.467 50.4361 356.323C50.6897 349.253 50.2254 343.872 49.6455 337.404C48.3748 323.222 46.8315 320.127 46.6097 309.28C46.4006 299.099 46.3578 293.948 49.3492 290.942C57.2302 283.02 77.7329 292.029 79.2872 292.731Z" fill="url(#paint14_linear_24_42)"/>
<path d="M137.398 222.437C139.185 222.315 140.971 222.195 142.758 222.074C146.972 238.622 143.949 254.674 134.436 260.577C119.573 269.801 91.9481 252.424 85.9621 233.501C83.3351 225.195 83.9324 213.21 89.1848 210.882C90.6425 210.235 92.9051 210.135 97.8057 212.807C112.441 220.79 112.826 235.878 120.267 237.156C123.572 237.725 128.915 235.676 137.398 222.437Z" fill="url(#paint15_linear_24_42)"/>
<path d="M96.4743 300.637C99.049 296.487 95.8152 292.485 95.08 284.624C94.2466 275.713 97.7799 274.229 101.274 259.462C103.598 249.642 105.827 240.214 103.165 229.177C101.89 223.888 99.7256 214.917 92.0823 210.584C88.1386 208.348 82.7531 208.572 72.1453 209.111C59.0261 209.778 52.4681 210.11 47.5754 212.613C46.8592 212.979 31.9782 220.843 30.953 233.663C29.9105 246.71 44.5348 248.463 46.4853 265.861C47.3615 273.672 45.8008 285.684 44.7883 293.474C43.8171 300.955 43.1469 302.87 44.6679 305.136C48.3312 310.596 59.5442 309.04 81.9704 305.929C90.7672 304.707 94.5524 303.734 96.4743 300.637Z" fill="url(#paint16_linear_24_42)"/>
<path d="M62.3509 263.061C61.4018 266.452 57.9921 268.985 55.6186 277.234C55.1069 279.015 51.4547 291.697 56.1906 294.818C58.9254 296.621 61.3812 293.205 68.02 292.759C79.523 291.986 85.0036 301.379 92.5186 298.813C93.8226 298.366 95.5433 297.418 97.2624 295.239C97.6047 297.203 97.546 298.91 96.475 300.638C94.5546 303.735 90.7678 304.708 81.971 305.929C59.5449 309.04 48.3318 310.596 44.6686 305.136C43.1491 302.872 43.8177 300.955 44.789 293.475C45.8014 285.683 47.3621 273.67 46.4859 265.861C44.5355 248.463 29.9095 246.71 30.9537 233.663C31.2325 230.175 32.5524 227.07 34.319 224.365C52.8712 231.658 65.3312 252.405 62.3509 263.061Z" fill="url(#paint17_linear_24_42)"/>
<path d="M38.9199 288.724L42.6323 291.027C43.2993 290.279 44.8426 288.77 47.2509 288.256C49.965 287.676 53.0816 288.508 53.1529 289.349C53.2116 290.023 51.3134 290.703 51.0203 290.808C48.6515 291.658 46.8944 290.951 45.9374 291.876C45.5983 292.203 45.1769 292.812 44.2056 293.376C43.9505 293.523 43.6843 293.654 43.5433 293.708C41.962 294.305 39.2511 291.632 39.0182 291.398L38.9199 288.724Z" fill="url(#paint18_linear_24_42)"/>
<path d="M49.8852 241.428C52.5709 235.18 54.431 225.614 50.1894 211.407C22.2431 222.105 7.99109 247.467 13.5556 267.57C18.1426 284.143 34.8331 292.215 38.5565 293.915C39.4232 291.998 40.2899 290.083 41.155 288.168C36.8405 283.501 31.9779 276.599 32.6656 268.723C33.6194 257.803 44.449 254.076 49.8852 241.428Z" fill="url(#paint19_linear_24_42)"/>
<path d="M71.4567 196.258C71.4567 196.258 71.2365 201.006 69.7186 204.564C68.3465 207.778 61.1341 209.799 59.6717 210.516C58.2092 211.233 62.4112 213.332 66.6305 213.743C70.8499 214.155 82.898 213.224 85.0702 211.671C87.2425 210.118 83.3242 210.234 80.3137 209.16C77.3017 208.086 75.5604 202.364 76.0928 199.767C76.6252 197.169 71.4567 196.258 71.4567 196.258Z" fill="url(#paint20_linear_24_42)"/>
<path d="M78.1304 194.536C80.3201 192.445 80.6259 192.202 80.8636 191.48C81.8206 188.582 79.5057 184.61 76.4699 183.633C76.3115 183.582 74.2755 182.949 73.4991 183.807C72.8384 184.535 73.8097 185.542 73.3486 186.947C72.916 188.261 71.7436 188.36 69.5681 190.084C67.7761 191.503 66.6638 192.387 66.4072 193.629C65.878 196.189 69.0674 199.898 71.8909 199.798C72.9065 199.761 73.1838 199.258 78.1304 194.536Z" fill="url(#paint21_linear_24_42)"/>
<path d="M72.169 200.194C72.169 200.194 74.4966 202.754 78.041 201.907C81.2146 201.15 80.4049 194.072 78.0821 192.942C77.3074 192.565 75.8988 192.596 74.8404 193.092C74.2145 193.384 74.0403 193.689 73.0088 194.148C72.0581 194.571 71.7555 194.512 71.5004 194.811C71.1803 195.183 71.0425 195.987 72.0454 197.923C71.3229 197.426 70.545 197.322 70.0681 197.651C69.992 197.703 69.7987 197.888 69.7147 198.13C69.4121 199.006 70.3501 199.897 72.169 200.194Z" fill="url(#paint22_linear_24_42)"/>
<path d="M337.604 104.366L338.423 108.662L321.56 108.701L175.221 109.038C171.457 109.047 167.995 112.07 167.478 115.791L132.544 342.609C132.025 346.363 138.039 352.094 141.782 352.374L206.704 357.221V357.144L303.817 364.382C303.819 364.382 303.821 364.382 303.822 364.382L304.057 364.477C308.203 364.788 312.007 361.865 312.546 357.9C312.546 357.898 312.546 357.917 312.548 357.915L345.263 115.748C345.795 111.819 341.774 104.355 337.604 104.366Z" fill="url(#paint23_linear_24_42)"/>
<path d="M309.237 353.181C308.702 357.148 304.899 360.112 300.752 359.803L138.309 347.686C134.569 347.407 131.965 344.138 132.485 340.383L164.242 111.153C164.757 107.433 168.219 104.41 171.98 104.399L335.341 103.962C339.509 103.951 342.466 107.127 341.937 111.055L309.237 353.181Z" fill="url(#paint24_linear_24_42)"/>
<path d="M311.395 227.117C311.129 229.081 309.24 230.546 307.177 230.473L164.209 225.404C162.322 225.338 160.994 223.828 161.254 221.951L164.064 201.711C164.324 199.836 166.047 198.568 167.935 198.619L311.029 202.479C313.095 202.535 314.558 203.952 314.293 205.915L311.395 227.117Z" fill="white"/>
<path d="M305.859 268.242C305.593 270.211 303.703 271.89 301.64 271.79L158.779 264.934C156.893 264.844 155.582 263.09 155.841 261.212L158.674 240.581C158.934 238.705 160.672 237.096 162.559 237.17L305.507 242.772C307.57 242.853 309.03 244.667 308.764 246.632L305.859 268.242Z" fill="white"/>
<path opacity="0.1" d="M314.305 205.833C313.965 205.727 313.601 205.669 313.213 205.658L170.116 201.799C168.229 201.747 166.505 203.018 166.248 204.888L163.433 225.128C163.426 225.181 163.422 225.23 163.417 225.282C161.966 224.885 161.032 223.549 161.251 221.948L164.066 201.708C164.323 199.838 166.047 198.565 167.934 198.619L311.031 202.478C313.061 202.536 314.517 203.909 314.305 205.833Z" fill="url(#paint25_linear_24_42)"/>
<path opacity="0.1" d="M308.794 246.176C308.45 246.044 308.08 245.964 307.687 245.949L164.742 240.346C162.855 240.272 161.113 241.883 160.857 243.76L158.019 264.392C158.003 264.525 157.992 264.652 157.992 264.785C156.541 264.329 155.619 262.813 155.837 261.212L158.675 240.58C158.932 238.703 160.671 237.092 162.56 237.165L305.505 242.768C307.414 242.848 308.799 244.395 308.794 246.176Z" fill="url(#paint26_linear_24_42)"/>
<path d="M267.864 301.576C268.286 298.471 266.026 295.611 262.815 295.431L188.861 291.306C185.798 291.135 182.97 293.641 182.554 296.664L179.502 319.011C179.085 322.039 181.21 324.936 184.271 325.139L258.187 330.052C261.397 330.266 264.353 327.633 264.776 324.523L267.864 301.576Z" fill="url(#paint27_linear_24_42)"/>
<path d="M273.45 151.014C272.475 158.157 268.698 164.605 263.327 169.348C257.539 174.463 249.914 177.575 241.986 177.426C234.097 177.278 227.457 173.93 223.193 168.701C219.26 163.882 217.334 157.46 218.299 150.436C220.306 135.824 234.125 124.011 249.29 124.047C264.599 124.079 275.475 136.152 273.45 151.014Z" fill="url(#paint28_linear_24_42)"/>
<path d="M258.703 142.894C257.828 149.294 251.747 154.423 245.145 154.346C238.57 154.269 233.965 149.056 234.835 142.701C235.706 136.349 241.726 131.225 248.304 131.254C254.911 131.283 259.578 136.494 258.703 142.894Z" fill="white"/>
<path d="M263.328 169.348C257.54 174.463 249.915 177.576 241.987 177.426C234.098 177.278 227.458 173.931 223.194 168.702C228.074 162.097 236.123 157.703 244.671 157.811C253.265 157.919 260.192 162.546 263.328 169.348Z" fill="white"/>
<path opacity="0.4" d="M341.935 111.054L309.237 353.18C308.702 357.145 304.656 360.093 300.512 359.783L202.947 352.506C198.312 347.895 194.495 342.363 191.772 335.724C190.434 332.469 189.455 328.956 188.804 325.262C186.993 315.038 187.695 303.416 190.336 292.009C192.367 283.227 195.552 274.558 199.629 266.735C202.89 260.481 206.724 254.763 211.007 249.957C214.09 246.498 217.425 243.138 220.943 239.842C225.184 235.865 229.692 231.983 234.342 228.136C245.178 219.167 256.781 210.397 267.524 201.137C292.311 179.775 312.42 155.905 307.581 121.847C307.426 120.774 305.916 112.559 303.986 104.044L335.098 103.961C339.265 103.95 342.466 107.127 341.935 111.054Z" fill="white"/>
<defs>
<linearGradient id="paint0_linear_24_42" x1="297.083" y1="310.876" x2="407.051" y2="5.16227" gradientUnits="userSpaceOnUse">
<stop offset="0.00359712" stop-color="#E38DDD"/>
<stop offset="1" stop-color="#9571F6"/>
</linearGradient>
<linearGradient id="paint1_linear_24_42" x1="211.414" y1="280.899" x2="435.885" y2="280.899" gradientUnits="userSpaceOnUse">
<stop stop-color="#FF9085"/>
<stop offset="1" stop-color="#FB6FBB"/>
</linearGradient>
<linearGradient id="paint2_linear_24_42" x1="269.019" y1="229.489" x2="335.23" y2="236.924" gradientUnits="userSpaceOnUse">
<stop stop-color="#444B8C"/>
<stop offset="0.9964" stop-color="#26264F"/>
</linearGradient>
<linearGradient id="paint3_linear_24_42" x1="210.639" y1="67.2326" x2="365.963" y2="611.535" gradientUnits="userSpaceOnUse">
<stop stop-color="#444B8C"/>
<stop offset="0.9964" stop-color="#26264F"/>
</linearGradient>
<linearGradient id="paint4_linear_24_42" x1="272.032" y1="53.886" x2="455" y2="563.96" gradientUnits="userSpaceOnUse">
<stop stop-color="#FFC444"/>
<stop offset="0.9964" stop-color="#F36F56"/>
</linearGradient>
<linearGradient id="paint5_linear_24_42" x1="-1410.25" y1="1463.53" x2="-1282.13" y2="1339.18" gradientUnits="userSpaceOnUse">
<stop stop-color="#311944"/>
<stop offset="1" stop-color="#893976"/>
</linearGradient>
<linearGradient id="paint6_linear_24_42" x1="40.3601" y1="132.49" x2="143.138" y2="36.4858" gradientUnits="userSpaceOnUse">
<stop stop-color="#FF9085"/>
<stop offset="1" stop-color="#FB6FBB"/>
</linearGradient>
<linearGradient id="paint7_linear_24_42" x1="147.291" y1="213.397" x2="126.992" y2="234.665" gradientUnits="userSpaceOnUse">
<stop stop-color="#FFC444"/>
<stop offset="0.9964" stop-color="#F36F56"/>
</linearGradient>
<linearGradient id="paint8_linear_24_42" x1="95.4503" y1="409.845" x2="95.6167" y2="363.964" gradientUnits="userSpaceOnUse">
<stop stop-color="#AA80F9"/>
<stop offset="0.9964" stop-color="#6165D7"/>
</linearGradient>
<linearGradient id="paint9_linear_24_42" x1="90.7723" y1="424.589" x2="88.6488" y2="400.87" gradientUnits="userSpaceOnUse">
<stop stop-color="#FFC444"/>
<stop offset="0.9964" stop-color="#F36F56"/>
</linearGradient>
<linearGradient id="paint10_linear_24_42" x1="67.6071" y1="409.745" x2="67.7734" y2="363.863" gradientUnits="userSpaceOnUse">
<stop stop-color="#AA80F9"/>
<stop offset="0.9964" stop-color="#6165D7"/>
</linearGradient>
<linearGradient id="paint11_linear_24_42" x1="62.5535" y1="427.115" x2="60.4301" y2="403.395" gradientUnits="userSpaceOnUse">
<stop stop-color="#FFC444"/>
<stop offset="0.9964" stop-color="#F36F56"/>
</linearGradient>
<linearGradient id="paint12_linear_24_42" x1="89.9179" y1="305.13" x2="73.546" y2="391.286" gradientUnits="userSpaceOnUse">
<stop stop-color="#311944"/>
<stop offset="1" stop-color="#893976"/>
</linearGradient>
<linearGradient id="paint13_linear_24_42" x1="98.5568" y1="347.172" x2="72.5595" y2="349.317" gradientUnits="userSpaceOnUse">
<stop stop-color="#311944"/>
<stop offset="1" stop-color="#893976"/>
</linearGradient>
<linearGradient id="paint14_linear_24_42" x1="84.1717" y1="351.924" x2="44.7054" y2="355.181" gradientUnits="userSpaceOnUse">
<stop stop-color="#311944"/>
<stop offset="1" stop-color="#893976"/>
</linearGradient>
<linearGradient id="paint15_linear_24_42" x1="115.358" y1="225.327" x2="87.7524" y2="407.817" gradientUnits="userSpaceOnUse">
<stop stop-color="#AA80F9"/>
<stop offset="0.9964" stop-color="#6165D7"/>
</linearGradient>
<linearGradient id="paint16_linear_24_42" x1="53.2327" y1="425.37" x2="39.8945" y2="609.358" gradientUnits="userSpaceOnUse">
<stop stop-color="#AA80F9"/>
<stop offset="0.9964" stop-color="#6165D7"/>
</linearGradient>
<linearGradient id="paint17_linear_24_42" x1="5.19972" y1="362.656" x2="79.8584" y2="231.02" gradientUnits="userSpaceOnUse">
<stop stop-color="#AA80F9"/>
<stop offset="0.9964" stop-color="#6165D7"/>
</linearGradient>
<linearGradient id="paint18_linear_24_42" x1="32.8414" y1="272.94" x2="48.6776" y2="294.96" gradientUnits="userSpaceOnUse">
<stop stop-color="#FFC444"/>
<stop offset="0.9964" stop-color="#F36F56"/>
</linearGradient>
<linearGradient id="paint19_linear_24_42" x1="18.7151" y1="422.868" x2="5.37692" y2="606.856" gradientUnits="userSpaceOnUse">
<stop stop-color="#AA80F9"/>
<stop offset="0.9964" stop-color="#6165D7"/>
</linearGradient>
<linearGradient id="paint20_linear_24_42" x1="79.5413" y1="219.16" x2="64.2624" y2="199.592" gradientUnits="userSpaceOnUse">
<stop stop-color="#FFC444"/>
<stop offset="0.9964" stop-color="#F36F56"/>
</linearGradient>
<linearGradient id="paint21_linear_24_42" x1="67.5033" y1="212.131" x2="75.4606" y2="185.186" gradientUnits="userSpaceOnUse">
<stop stop-color="#444B8C"/>
<stop offset="0.9964" stop-color="#3E4177"/>
</linearGradient>
<linearGradient id="paint22_linear_24_42" x1="88.9032" y1="202.773" x2="65.5314" y2="192.065" gradientUnits="userSpaceOnUse">
<stop stop-color="#FFC444"/>
<stop offset="0.9964" stop-color="#F36F56"/>
</linearGradient>
<linearGradient id="paint23_linear_24_42" x1="132.513" y1="234.434" x2="345.311" y2="234.434" gradientUnits="userSpaceOnUse">
<stop stop-color="#311944"/>
<stop offset="1" stop-color="#893976"/>
</linearGradient>
<linearGradient id="paint24_linear_24_42" x1="261.887" y1="641.041" x2="237.935" y2="213.978" gradientUnits="userSpaceOnUse">
<stop offset="0.003597" stop-color="#F36F56"/>
<stop offset="1" stop-color="#FFC444"/>
</linearGradient>
<linearGradient id="paint25_linear_24_42" x1="161.219" y1="211.951" x2="314.324" y2="211.951" gradientUnits="userSpaceOnUse">
<stop offset="0.003597" stop-color="#F36F56"/>
<stop offset="1" stop-color="#FFC444"/>
</linearGradient>
<linearGradient id="paint26_linear_24_42" x1="155.807" y1="250.974" x2="308.794" y2="250.974" gradientUnits="userSpaceOnUse">
<stop offset="0.003597" stop-color="#F36F56"/>
<stop offset="1" stop-color="#FFC444"/>
</linearGradient>
<linearGradient id="paint27_linear_24_42" x1="231.003" y1="265.383" x2="198.681" y2="476.365" gradientUnits="userSpaceOnUse">
<stop offset="0.003597" stop-color="#F36F56"/>
<stop offset="1" stop-color="#FFC444"/>
</linearGradient>
<linearGradient id="paint28_linear_24_42" x1="242.253" y1="46.0117" x2="249.147" y2="257.32" gradientUnits="userSpaceOnUse">
<stop offset="0.003597" stop-color="#F36F56"/>
<stop offset="1" stop-color="#FFC444"/>
</linearGradient>
</defs>
</svg>
